<svg width="82" height="68" viewBox="0 0 82 68" fill="none" xmlns="http://www.w3.org/2000/svg">
<path d="M5.75743 29.88C5.75743 29.88 41.5074 15.2082 53.9061 10.0419C58.6591 7.97558 74.7775 1.36269 74.7775 1.36269C74.7775 1.36269 82.2169 -1.53019 81.5968 5.49568C81.3901 8.38885 79.737 18.5144 78.0839 29.4667C75.604 44.9653 72.9176 61.9102 72.9176 61.9102C72.9176 61.9102 72.5043 66.6633 68.9914 67.4898C65.4785 68.3164 59.6921 64.5969 58.6591 63.7701C57.8323 63.1503 43.1605 53.8511 37.7877 49.3048C36.3411 48.065 34.688 45.5854 37.9942 42.6922C45.4336 35.8728 54.3193 27.4004 59.6921 22.0276C62.172 19.5477 64.6516 13.7616 54.3193 20.7875C39.6475 30.9133 25.1822 40.4191 25.1822 40.4191C25.1822 40.4191 21.8758 42.4854 15.6765 40.6256C9.47686 38.766 2.24421 36.2861 2.24421 36.2861C2.24421 36.2861 -2.71503 33.1864 5.75743 29.88Z" fill="white"/>
</svg>
