<svg width="94" height="57" viewBox="0 0 94 57" fill="none" xmlns="http://www.w3.org/2000/svg">
<path fill-rule="evenodd" clip-rule="evenodd" d="M91.8396 4.09308C92.499 1.89506 91.8396 0.356445 88.7624 0.356445H78.5049C75.8673 0.356445 74.695 1.74852 74.0356 3.28714C74.0356 3.28714 68.8336 16.0356 61.4336 24.2416C59.0158 26.6594 57.9901 27.3921 56.6713 27.3921C56.0119 27.3921 55.0594 26.6594 55.0594 24.4614V4.09308C55.0594 1.45545 54.3267 0.356445 52.1287 0.356445H36.0099C34.398 0.356445 33.3723 1.60199 33.3723 2.701C33.3723 5.19208 37.0356 5.77823 37.4752 12.6653V27.7584C37.4752 31.0554 36.8891 31.6416 35.5703 31.6416C32.1267 31.6416 23.6277 18.8931 18.6455 4.23961C17.6198 1.52872 16.6673 0.356445 14.0297 0.356445H3.77227C0.841582 0.356445 0.255444 1.74852 0.255444 3.28714C0.255444 5.99803 3.69901 19.4792 16.4475 37.2832C24.9465 49.4455 36.8891 56.0396 47.7327 56.0396C54.2535 56.0396 55.0594 54.5742 55.0594 52.0831V42.8515C55.0594 39.9208 55.6455 39.3346 57.7703 39.3346C59.3089 39.3346 61.8733 40.0673 67.9544 45.9287C74.9148 52.8891 76.0871 56.0396 79.9703 56.0396H90.2277C93.1584 56.0396 94.6237 54.5742 93.7445 51.7168C92.7921 48.8594 89.495 44.6831 85.099 39.701C82.6812 36.8435 79.0911 33.8396 78.0653 32.301C76.5267 30.3228 76.9663 29.4436 78.0653 27.7584C78.0653 27.6851 90.594 10.101 91.8396 4.09308Z" fill="white"/>
</svg>
