<svg width="179" height="179" viewBox="0 0 179 179" fill="none" xmlns="http://www.w3.org/2000/svg">
<path fill-rule="evenodd" clip-rule="evenodd" d="M1.51483 116.478L94.2487 23.7442C95.0499 23.8461 95.8948 23.5985 96.5066 22.9867C97.1184 22.3749 97.3806 21.53 97.2641 20.7288L116.478 1.51483C118.503 -0.509989 121.81 -0.509989 123.834 1.51483L139.028 16.7228C135.036 23.2343 135.867 31.858 141.504 37.4955C147.142 43.1329 155.765 43.9487 162.277 39.9719L177.47 55.1653C179.495 57.1901 179.495 60.4968 177.47 62.5217L158.256 81.7356C157.455 81.6337 156.625 81.8813 155.998 82.4931C155.387 83.1049 155.124 83.9498 155.241 84.751L62.5217 177.47C60.4968 179.495 57.1901 179.495 55.1653 177.47L40.0593 162.379C44.4003 155.809 43.6719 146.894 37.9033 141.111C32.1202 135.328 23.2052 134.614 16.6354 138.955L1.51483 123.834C-0.509989 121.81 -0.509989 118.503 1.51483 116.478ZM148.977 75.4718C150.026 74.423 151.73 74.423 152.779 75.4718C153.828 76.5206 153.828 78.225 152.779 79.2738C151.73 80.3226 150.026 80.3226 148.977 79.2738C147.928 78.225 147.928 76.5206 148.977 75.4718ZM141.941 68.4359C142.99 67.3871 144.694 67.3871 145.743 68.4359C146.792 69.4847 146.792 71.1891 145.743 72.2379C144.694 73.2867 142.99 73.2867 141.941 72.2379C140.892 71.1891 140.892 69.4847 141.941 68.4359ZM134.905 61.4C135.954 60.3512 137.659 60.3512 138.707 61.4C139.756 62.4488 139.756 64.1532 138.707 65.202C137.659 66.2508 135.954 66.2508 134.905 65.202C133.857 64.1532 133.857 62.4488 134.905 61.4ZM127.869 54.3641C128.918 53.3153 130.623 53.3153 131.671 54.3641C132.72 55.4129 132.72 57.1173 131.671 58.1661C130.623 59.2149 128.918 59.2149 127.869 58.1661C126.821 57.1173 126.821 55.4129 127.869 54.3641ZM120.834 47.3282C121.882 46.2794 123.587 46.2794 124.636 47.3282C125.684 48.3771 125.684 50.0814 124.636 51.1302C123.587 52.1791 121.882 52.1791 120.834 51.1302C119.785 50.0814 119.785 48.3771 120.834 47.3282ZM113.798 40.2923C114.847 39.2435 116.551 39.2435 117.6 40.2923C118.649 41.3412 118.649 43.0455 117.6 44.0943C116.551 45.1432 114.847 45.1432 113.798 44.0943C112.749 43.0455 112.749 41.3412 113.798 40.2923ZM106.762 33.2565C107.811 32.2076 109.515 32.2076 110.564 33.2565C111.613 34.3053 111.613 36.0096 110.564 37.0585C109.515 38.1073 107.811 38.1073 106.762 37.0585C105.713 36.0096 105.713 34.3053 106.762 33.2565ZM99.7259 26.2206C100.775 25.1717 102.479 25.1717 103.528 26.2206C104.577 27.2694 104.577 28.9737 103.528 30.0226C102.479 31.0714 100.775 31.0714 99.7259 30.0226C98.6771 28.9737 98.6771 27.2694 99.7259 26.2206ZM37.073 109.122L94.4381 51.7566C96.798 49.3967 100.658 49.3967 103.018 51.7566L129.384 78.123C131.744 80.4829 131.744 84.3431 129.384 86.703L72.0194 144.068C69.6595 146.428 65.7993 146.428 63.4394 144.068L37.073 117.702C34.7132 115.342 34.7132 111.482 37.073 109.122Z" fill="url(#paint0_linear_51_377)"/>
<defs>
<linearGradient id="paint0_linear_51_377" x1="89.4926" y1="-0.00378418" x2="89.4926" y2="178.989" gradientUnits="userSpaceOnUse">
<stop stop-color="#663287"/>
<stop offset="0.24" stop-color="#882D87"/>
<stop offset="0.5" stop-color="#902769"/>
<stop offset="0.74" stop-color="#9D3C54"/>
<stop offset="0.955" stop-color="#D58368"/>
</linearGradient>
</defs>
</svg>
