<svg width="179" height="179" viewBox="0 0 179 179" fill="none" xmlns="http://www.w3.org/2000/svg">
<path d="M112.802 89.5387H108.91V97.3215H112.802C114.942 97.3215 116.693 95.578 116.693 93.4299C116.693 91.2818 114.942 89.5387 112.802 89.5387Z" fill="url(#paint0_linear_51_383)"/>
<path d="M178.793 68.7897C178.31 67.3888 177.081 66.3771 175.617 66.1823L119.254 58.7107L92.9786 6.03602C92.3248 4.72083 90.9706 3.88794 89.4996 3.88794C88.0287 3.88794 86.6821 4.72083 86.0207 6.04368L59.7377 58.7107L3.38191 66.1823C1.91861 66.3768 0.681125 67.3888 0.206489 68.7897C-0.268147 70.1906 0.0897453 71.7393 1.14044 72.79L42.4753 114.125L31.2136 170.45C30.9257 171.913 31.4861 173.4 32.6689 174.31C33.852 175.221 35.455 175.361 36.7706 174.699L89.5077 148.331L142.245 174.699C142.797 174.972 143.389 175.112 143.988 175.112C144.821 175.112 145.662 174.84 146.354 174.311C147.529 173.408 148.098 171.913 147.809 170.45L136.548 114.126L177.883 72.7907C178.91 71.747 179.268 70.1906 178.793 68.7897ZM81.421 87.025L69.7466 118.157C69.1786 119.674 67.7229 120.678 66.1042 120.678C64.4855 120.678 63.0299 119.674 62.4618 118.157L50.7875 87.025C50.0246 85.0094 51.0443 82.7679 53.06 82.0127C55.0603 81.2732 57.3171 82.2772 58.0723 84.2852L66.1042 105.704L74.1362 84.2852C74.891 82.2696 77.1405 81.2656 79.1485 82.0127C81.1641 82.7676 82.1758 85.0014 81.421 87.025ZM93.3445 116.779C93.3445 118.927 91.601 120.671 89.4529 120.671C87.3049 120.671 85.5614 118.927 85.5614 116.779V85.6475C85.5614 83.4994 87.3049 81.7559 89.4529 81.7559C91.601 81.7559 93.3445 83.4994 93.3445 85.6475V116.779ZM112.802 105.105H108.91V116.779C108.91 118.927 107.167 120.671 105.018 120.671C102.87 120.671 101.127 118.927 101.127 116.779V85.6475C101.127 83.4994 102.87 81.7559 105.018 81.7559H112.801C119.238 81.7559 124.476 86.9937 124.476 93.4303C124.476 99.8745 119.238 105.105 112.802 105.105Z" fill="url(#paint1_linear_51_383)"/>
<defs>
<linearGradient id="paint0_linear_51_383" x1="112.802" y1="89.5387" x2="112.802" y2="97.3215" gradientUnits="userSpaceOnUse">
<stop stop-color="#663287"/>
<stop offset="0.24" stop-color="#882D87"/>
<stop offset="0.5" stop-color="#902769"/>
<stop offset="0.74" stop-color="#9D3C54"/>
<stop offset="0.955" stop-color="#D58368"/>
</linearGradient>
<linearGradient id="paint1_linear_51_383" x1="89.5" y1="3.88794" x2="89.5" y2="175.112" gradientUnits="userSpaceOnUse">
<stop stop-color="#663287"/>
<stop offset="0.24" stop-color="#882D87"/>
<stop offset="0.5" stop-color="#902769"/>
<stop offset="0.74" stop-color="#9D3C54"/>
<stop offset="0.955" stop-color="#D58368"/>
</linearGradient>
</defs>
</svg>
